<svg width="251" height="198" viewBox="0 0 251 198" fill="none" xmlns="http://www.w3.org/2000/svg">
<g filter="url(#filter0_d_185_426)">
<path d="M72.365 42H58.2176C52.5746 42 48 46.5703 48 52.2081V66.3424C48 71.9802 52.5746 76.5506 58.2176 76.5506H72.365C78.008 76.5506 82.5825 71.9802 82.5825 66.3424V52.2081C82.5825 46.5703 78.008 42 72.365 42Z" fill="url(#paint0_linear_185_426)"/>
</g>
<mask id="mask0_185_426" style="mask-type:alpha" maskUnits="userSpaceOnUse" x="47" y="41" width="36" height="36">
<path d="M72.3644 42.0983H58.217C52.6282 42.0983 48.0977 46.6246 48.0977 52.2082V66.3425C48.0977 71.9261 52.6282 76.4525 58.217 76.4525H72.3644C77.9531 76.4525 82.4837 71.9261 82.4837 66.3425V52.2082C82.4837 46.6246 77.9531 42.0983 72.3644 42.0983Z" fill="url(#paint1_linear_185_426)" stroke="black"/>
</mask>
<g mask="url(#mask0_185_426)">
<path d="M70.2102 67.192C73.4279 62.9778 75.6876 56.9839 77.8254 52.3634L77.8478 52.3341L77.0667 51.7387L68.34 63.1276C67.8855 63.7226 67.23 63.9947 66.6342 63.5407C66.0778 63.1166 66.1734 62.5259 66.532 61.9351C66.5521 61.8885 66.5916 61.8569 66.6214 61.8179L74.3229 49.6476L73.5419 49.0523L63.9484 59.7961L63.8566 59.896C63.3809 60.3975 62.7578 60.5864 62.1915 60.1547C61.596 59.7008 61.6756 58.9898 62.1298 58.3948L70.7981 46.9612L70.017 46.3659C66.1039 49.7106 60.9224 53.4623 57.7047 57.6765C55.7902 60.1836 55.5474 63.4553 56.9531 66.085C57.6667 67.416 57.2893 67.9307 57.2893 67.9307C57.2893 67.9307 40.7033 86.4163 39.8542 87.5284C39.005 88.6405 38.8668 89.6309 38.9941 90.5767C39.1215 91.5225 39.7699 92.4334 40.5705 93.0435L40.6096 93.0733C41.4102 93.6835 42.4511 94.06 43.4075 93.9403C44.3543 93.813 45.1275 93.569 46.1033 92.2911C47.079 91.0131 60.4137 70.3122 60.4137 70.3122C60.4137 70.3122 60.6886 69.75 62.3163 70.1265C65.1554 70.7778 68.2885 69.7089 70.2102 67.192Z" fill="white"/>
</g>
<path d="M108.364 53.4013C108.247 52.3055 107.753 51.4522 106.883 50.8414C106.02 50.2309 104.898 49.9255 103.516 49.9255C102.545 49.9255 101.712 50.0719 101.017 50.3646C100.322 50.6575 99.7904 51.0548 99.4219 51.5568C99.0535 52.0587 98.8651 52.6318 98.8568 53.2759C98.8568 53.8112 98.9783 54.2755 99.2209 54.6687C99.4722 55.0619 99.8114 55.3964 100.238 55.6726C100.665 55.9402 101.138 56.1661 101.658 56.3501C102.177 56.5342 102.7 56.6889 103.228 56.8144L105.639 57.4168C106.61 57.6426 107.544 57.9481 108.44 58.3328C109.344 58.7176 110.152 59.2029 110.864 59.7885C111.584 60.374 112.153 61.0808 112.572 61.909C112.991 62.7372 113.2 63.7076 113.2 64.8203C113.2 66.326 112.815 67.6518 112.045 68.7981C111.274 69.9357 110.161 70.8266 108.704 71.4709C107.255 72.1065 105.501 72.4245 103.441 72.4245C101.44 72.4245 99.7025 72.115 98.2288 71.4958C96.7634 70.8768 95.6163 69.9734 94.7873 68.7855C93.9667 67.5975 93.5231 66.1503 93.4561 64.4438H98.0404C98.1074 65.3389 98.3837 66.0833 98.8694 66.6774C99.3549 67.2714 99.987 67.7147 100.766 68.0076C101.553 68.3003 102.432 68.4467 103.403 68.4467C104.417 68.4467 105.304 68.2961 106.066 67.995C106.836 67.6854 107.439 67.2588 107.875 66.7151C108.31 66.1628 108.532 65.5187 108.54 64.7826C108.532 64.1134 108.335 63.5611 107.95 63.1261C107.565 62.6828 107.025 62.3148 106.33 62.0219C105.643 61.7207 104.839 61.4532 103.918 61.219L100.992 60.4659C98.8735 59.9221 97.1988 59.0982 95.968 57.994C94.7454 56.8813 94.1343 55.4049 94.1343 53.5644C94.1343 52.0503 94.5446 50.7244 95.3652 49.5867C96.194 48.449 97.3203 47.5664 98.7436 46.939C100.167 46.3032 101.779 45.9853 103.579 45.9853C105.405 45.9853 107.004 46.3032 108.377 46.939C109.759 47.5664 110.843 48.4406 111.63 49.5616C112.417 50.6742 112.823 51.9541 112.848 53.4013H108.364ZM122.705 72.4245C121.482 72.4245 120.381 72.207 119.401 71.772C118.43 71.3285 117.66 70.676 117.09 69.8144C116.529 68.9528 116.249 67.8904 116.249 66.6271C116.249 65.5397 116.45 64.6405 116.852 63.9292C117.254 63.2182 117.802 62.6495 118.497 62.2227C119.192 61.7961 119.975 61.474 120.846 61.2565C121.725 61.0307 122.633 60.8676 123.571 60.7671C124.702 60.6501 125.619 60.5454 126.322 60.4534C127.025 60.353 127.536 60.2025 127.854 60.0016C128.181 59.7926 128.344 59.4704 128.344 59.0354V58.9602C128.344 58.015 128.064 57.283 127.503 56.7643C126.942 56.2456 126.134 55.9863 125.079 55.9863C123.965 55.9863 123.081 56.229 122.428 56.714C121.784 57.1993 121.348 57.7724 121.122 58.4331L116.877 57.8309C117.212 56.6597 117.765 55.6809 118.535 54.8946C119.305 54.0998 120.247 53.5059 121.361 53.1127C122.475 52.7111 123.705 52.5105 125.053 52.5105C125.983 52.5105 126.908 52.6192 127.829 52.8367C128.75 53.0542 129.592 53.4139 130.354 53.9158C131.116 54.4094 131.727 55.0827 132.187 55.9361C132.656 56.7894 132.891 57.856 132.891 59.1359V72.0355H128.52V69.3878H128.369C128.093 69.9232 127.704 70.4251 127.201 70.8935C126.707 71.3537 126.083 71.7259 125.33 72.0103C124.584 72.2863 123.709 72.4245 122.705 72.4245ZM123.885 69.0867C124.798 69.0867 125.589 68.9067 126.259 68.547C126.929 68.1789 127.444 67.6939 127.804 67.0914C128.172 66.4891 128.357 65.8324 128.357 65.1214V62.8501C128.214 62.9673 127.972 63.0761 127.628 63.1764C127.293 63.2769 126.916 63.3646 126.498 63.4398C126.079 63.5152 125.665 63.5821 125.254 63.6406C124.844 63.6993 124.488 63.7494 124.187 63.7912C123.508 63.8833 122.901 64.0339 122.366 64.2429C121.83 64.4522 121.407 64.7449 121.097 65.1214C120.787 65.4895 120.632 65.9663 120.632 66.5519C120.632 67.3884 120.938 68.0199 121.549 68.4467C122.161 68.8733 122.939 69.0867 123.885 69.0867ZM147.234 52.7613V56.2749H135.83V52.7613H147.234ZM138.681 72.0355V50.9419C138.681 49.6452 138.949 48.5661 139.485 47.7044C140.029 46.8428 140.757 46.1987 141.67 45.772C142.583 45.3454 143.596 45.132 144.709 45.132C145.497 45.132 146.196 45.1948 146.807 45.3203C147.418 45.4458 147.87 45.5587 148.163 45.6591L147.259 49.1726C147.067 49.114 146.824 49.0555 146.531 48.9969C146.238 48.93 145.911 48.8965 145.551 48.8965C144.705 48.8965 144.107 49.1015 143.755 49.5114C143.412 49.9129 143.24 50.4902 143.24 51.2431V72.0355H138.681ZM158.61 72.412C156.676 72.412 155.005 72.0103 153.599 71.2072C152.2 70.3959 151.125 69.2498 150.371 67.769C149.617 66.28 149.241 64.5274 149.241 62.5113C149.241 60.5287 149.617 58.7887 150.371 57.2912C151.133 55.7855 152.196 54.6143 153.561 53.7778C154.926 52.9329 156.529 52.5105 158.372 52.5105C159.561 52.5105 160.682 52.7028 161.737 53.0876C162.801 53.4641 163.739 54.0497 164.551 54.8444C165.372 55.6391 166.016 56.6514 166.485 57.8811C166.954 59.1024 167.189 60.558 167.189 62.2478V63.6406H151.376V60.579H162.83C162.822 59.709 162.633 58.9351 162.265 58.2574C161.897 57.5715 161.382 57.0319 160.72 56.6389C160.067 56.2457 159.305 56.0489 158.434 56.0489C157.505 56.0489 156.688 56.2749 155.985 56.7266C155.282 57.1701 154.733 57.7557 154.34 58.4834C153.955 59.2029 153.758 59.9934 153.749 60.855V63.5278C153.749 64.6487 153.955 65.6108 154.365 66.4139C154.775 67.2086 155.349 67.8193 156.086 68.2459C156.822 68.6642 157.685 68.8733 158.673 68.8733C159.334 68.8733 159.933 68.7812 160.469 68.5973C161.005 68.4049 161.47 68.1246 161.863 67.7565C162.257 67.3884 162.554 66.9326 162.755 66.3888L167 66.8656C166.732 67.9866 166.221 68.9654 165.468 69.8018C164.723 70.6301 163.768 71.2742 162.604 71.7343C161.44 72.186 160.109 72.412 158.61 72.412ZM171.814 72.0355V46.3367H180.807C182.598 46.3367 184.076 46.6462 185.24 47.2653C186.404 47.8759 187.271 48.6999 187.84 49.7373C188.409 50.7662 188.694 51.9082 188.694 53.163C188.694 54.2672 188.497 55.1791 188.104 55.8984C187.719 56.6179 187.208 57.1868 186.571 57.6049C185.943 58.0232 185.261 58.3328 184.524 58.5336V58.7845C185.311 58.8348 186.103 59.1108 186.898 59.6128C187.693 60.1147 188.359 60.834 188.895 61.771C189.431 62.708 189.699 63.854 189.699 65.2092C189.699 66.4975 189.406 67.6562 188.82 68.685C188.234 69.7141 187.308 70.5298 186.044 71.132C184.78 71.7343 183.134 72.0355 181.108 72.0355H171.814ZM174.929 69.2749H181.108C183.143 69.2749 184.587 68.8817 185.441 68.0953C186.303 67.3007 186.735 66.3385 186.735 65.2092C186.735 64.3391 186.513 63.5362 186.069 62.8C185.625 62.0554 184.993 61.4614 184.172 61.0181C183.352 60.5664 182.381 60.3405 181.259 60.3405H174.929V69.2749ZM174.929 57.63H180.706C181.644 57.63 182.49 57.4461 183.243 57.078C184.005 56.7099 184.608 56.1913 185.052 55.5221C185.504 54.8528 185.73 54.0664 185.73 53.163C185.73 52.0336 185.336 51.0758 184.549 50.2894C183.762 49.4947 182.515 49.0973 180.807 49.0973H174.929V57.63ZM194.415 72.0355V52.7613H197.379V72.0355H194.415ZM195.922 49.549C195.345 49.549 194.846 49.3524 194.428 48.9593C194.017 48.5661 193.812 48.0934 193.812 47.5413C193.812 46.9892 194.017 46.5165 194.428 46.1234C194.846 45.7302 195.345 45.5336 195.922 45.5336C196.5 45.5336 196.994 45.7302 197.404 46.1234C197.823 46.5165 198.032 46.9892 198.032 47.5413C198.032 48.0934 197.823 48.5661 197.404 48.9593C196.994 49.3524 196.5 49.549 195.922 49.549ZM211.198 52.7613V55.271H201.2V52.7613H211.198ZM204.114 48.1436H207.078V66.5142C207.078 67.3507 207.2 67.9781 207.443 68.3965C207.694 68.8063 208.012 69.0824 208.397 69.2247C208.791 69.3586 209.205 69.4255 209.641 69.4255C209.967 69.4255 210.235 69.4086 210.445 69.3753C210.654 69.3334 210.821 69.2999 210.947 69.2749L211.55 71.9351C211.349 72.0103 211.068 72.0857 210.708 72.1609C210.348 72.2445 209.892 72.2863 209.339 72.2863C208.502 72.2863 207.681 72.1065 206.877 71.7469C206.082 71.387 205.421 70.8391 204.893 70.103C204.374 69.3668 204.114 68.4383 204.114 67.3173V48.1436ZM223.538 72.4369C221.679 72.4369 220.076 72.027 218.728 71.2072C217.388 70.379 216.354 69.2247 215.625 67.7439C214.905 66.2549 214.545 64.5233 214.545 62.549C214.545 60.5747 214.905 58.8348 215.625 57.3289C216.354 55.8148 217.367 54.6353 218.665 53.7904C219.971 52.937 221.495 52.5105 223.237 52.5105C224.242 52.5105 225.234 52.6777 226.213 53.0124C227.193 53.3469 228.085 53.8907 228.889 54.6436C229.692 55.3882 230.333 56.3752 230.81 57.6049C231.287 58.8348 231.526 60.3489 231.526 62.1475V63.4023H216.655V60.8424H228.512C228.512 59.7549 228.294 58.7845 227.859 57.9312C227.432 57.078 226.821 56.4045 226.025 55.9109C225.238 55.4174 224.308 55.1707 223.237 55.1707C222.056 55.1707 221.034 55.4634 220.172 56.0489C219.318 56.6263 218.661 57.3791 218.2 58.3077C217.74 59.2362 217.509 60.2317 217.509 61.2942V63.0007C217.509 64.4563 217.761 65.6903 218.263 66.7025C218.774 67.7062 219.481 68.4718 220.386 68.9987C221.29 69.5174 222.341 69.7767 223.538 69.7767C224.317 69.7767 225.02 69.668 225.648 69.4504C226.285 69.2247 226.833 68.89 227.294 68.4467C227.754 67.995 228.11 67.4343 228.361 66.7651L231.226 67.5682C230.923 68.5388 230.417 69.3919 229.705 70.1281C228.993 70.8558 228.114 71.4247 227.068 71.8346C226.021 72.2363 224.844 72.4369 223.538 72.4369ZM249.7 57.078L247.037 57.8309C246.87 57.3876 246.623 56.9567 246.297 56.5383C245.978 56.1118 245.542 55.7604 244.99 55.4844C244.438 55.2083 243.73 55.0703 242.868 55.0703C241.687 55.0703 240.702 55.342 239.917 55.8858C239.138 56.4213 238.747 57.1031 238.747 57.9312C238.747 58.6673 239.017 59.2488 239.551 59.6754C240.087 60.1022 240.925 60.4577 242.064 60.7421L244.927 61.4447C246.652 61.8631 247.937 62.503 248.784 63.3646C249.629 64.218 250.052 65.3179 250.052 66.6648C250.052 67.769 249.733 68.7561 249.097 69.6261C248.47 70.4962 247.59 71.1821 246.46 71.6841C245.33 72.186 244.015 72.4369 242.516 72.4369C240.549 72.4369 238.92 72.0103 237.629 71.1572C236.34 70.3038 235.525 69.0574 235.181 67.4177L237.995 66.7151C238.262 67.7524 238.769 68.5303 239.514 69.049C240.268 69.5676 241.253 69.827 242.465 69.827C243.848 69.827 244.945 69.5343 245.756 68.9487C246.578 68.3546 246.988 67.6436 246.988 66.8154C246.988 66.1462 246.752 65.5857 246.285 65.134C245.815 64.6738 245.094 64.3309 244.123 64.1049L240.909 63.3521C239.142 62.9337 237.844 62.2855 237.014 61.407C236.195 60.5203 235.784 59.4119 235.784 58.0817C235.784 56.9944 236.089 56.0323 236.7 55.1958C237.321 54.3591 238.162 53.7025 239.225 53.2256C240.298 52.7488 241.512 52.5105 242.868 52.5105C244.778 52.5105 246.275 52.9286 247.364 53.7653C248.462 54.6017 249.24 55.706 249.7 57.078Z" fill="black"/>
<defs>
<filter id="filter0_d_185_426" x="-41.9" y="-16.9" width="214.382" height="214.351" filterUnits="userSpaceOnUse" color-interpolation-filters="sRGB">
<feFlood flood-opacity="0" result="BackgroundImageFix"/>
<feColorMatrix in="SourceAlpha" type="matrix" values="0 0 0 0 0 0 0 0 0 0 0 0 0 0 0 0 0 0 127 0" result="hardAlpha"/>
<feOffset dy="31"/>
<feGaussianBlur stdDeviation="44.95"/>
<feComposite in2="hardAlpha" operator="out"/>
<feColorMatrix type="matrix" values="0 0 0 0 1 0 0 0 0 0 0 0 0 0 0 0 0 0 0.25 0"/>
<feBlend mode="normal" in2="BackgroundImageFix" result="effect1_dropShadow_185_426"/>
<feBlend mode="normal" in="SourceGraphic" in2="effect1_dropShadow_185_426" result="shape"/>
</filter>
<linearGradient id="paint0_linear_185_426" x1="68.7084" y1="76.5506" x2="69.4588" y2="42" gradientUnits="userSpaceOnUse">
<stop stop-color="#FB3600"/>
<stop offset="1" stop-color="#FF531F"/>
</linearGradient>
<linearGradient id="paint1_linear_185_426" x1="66.9994" y1="42.0001" x2="65.3621" y2="76.5508" gradientUnits="userSpaceOnUse">
<stop offset="1" stop-color="#BC2C00"/>
</linearGradient>
</defs>
</svg>
