<svg width="203" height="35" viewBox="0 0 203 35" fill="none" xmlns="http://www.w3.org/2000/svg">
<path d="M24.365 0H10.2176C4.57456 0 0 4.57033 0 10.2081V24.3052C0 29.943 4.57456 34.5133 10.2176 34.5133L24.365 34.5506C30.008 34.5506 34.5825 29.9802 34.5825 24.3424V10.2081C34.5825 4.57033 30.008 0 24.365 0Z" fill="url(#paint0_linear_228_178)"/>
<path d="M29.8238 10.3634C27.686 14.9839 25.4263 20.9779 22.2086 25.192C20.2869 27.7089 17.1538 28.7778 14.3147 28.1265C12.687 27.75 12.4121 28.3122 12.4121 28.3122L7 34C7 34 6.5 34 5.5 33.5C4.5 33 3.49902 32 3.49902 32L9.28766 25.9308C9.28766 25.9308 9.66512 25.416 8.95147 24.0851C7.54577 21.4553 7.78863 18.1836 9.70305 15.6765C12.9208 11.4623 18.1023 7.71064 22.0154 4.36588L22.7965 4.96121L14.1282 16.3948C13.6739 16.9898 13.5944 17.7009 14.1899 18.1547C14.7562 18.5864 15.3793 18.3976 15.855 17.896L15.9468 17.7961L25.5403 7.0523L26.3213 7.64763L18.6198 19.8179C18.59 19.8569 18.5505 19.8885 18.5304 19.9351C18.1718 20.526 18.0761 21.1167 18.6326 21.5407C19.2284 21.9947 19.8839 21.7227 20.3384 21.1276L29.0651 9.73872L29.8462 10.3341L29.8238 10.3634Z" fill="white"/>
<path d="M60.3646 11.4013C60.2475 10.3055 59.7535 9.45215 58.8827 8.84143C58.0203 8.2309 56.8981 7.92548 55.5166 7.92548C54.5453 7.92548 53.7122 8.07189 53.0172 8.36459C52.3222 8.65748 51.7905 9.05482 51.4221 9.55678C51.0537 10.0587 50.8652 10.6318 50.857 11.2759C50.857 11.8112 50.9784 12.2755 51.2211 12.6687C51.4724 13.0619 51.8115 13.3964 52.2385 13.6726C52.6655 13.9402 53.1386 14.1661 53.6578 14.3501C54.1769 14.5342 54.7002 14.6889 55.2277 14.8144L57.6393 15.4168C58.6105 15.6426 59.5441 15.948 60.4401 16.3328C61.3443 16.7176 62.1523 17.2029 62.8642 17.7885C63.5841 18.374 64.1536 19.0808 64.5723 19.909C64.9908 20.7372 65.2003 21.7076 65.2003 22.8203C65.2003 24.326 64.8151 25.6518 64.0447 26.7981C63.2745 27.9357 62.1607 28.8266 60.7038 29.4709C59.2552 30.1065 57.5011 30.4245 55.4413 30.4245C53.4401 30.4245 51.7027 30.115 50.229 29.4958C48.7636 28.8768 47.6164 27.9734 46.7874 26.7855C45.9669 25.5975 45.5232 24.1503 45.4562 22.4437H50.0406C50.1076 23.3389 50.3838 24.0833 50.8695 24.6774C51.3551 25.2714 51.9872 25.7147 52.7661 26.0076C53.553 26.3003 54.4323 26.4467 55.4036 26.4467C56.4167 26.4467 57.3043 26.2961 58.0662 25.995C58.8365 25.6854 59.4395 25.2588 59.8748 24.7151C60.3102 24.1628 60.5322 23.5187 60.5405 22.7826C60.5322 22.1134 60.3353 21.5611 59.9502 21.1261C59.5651 20.6828 59.0249 20.3148 58.3299 20.0219C57.6434 19.7207 56.8396 19.4532 55.9186 19.219L52.9921 18.4659C50.8737 17.9221 49.199 17.0982 47.9682 15.994C46.7456 14.8813 46.1345 13.4048 46.1345 11.5644C46.1345 10.0503 46.5448 8.72443 47.3653 7.58667C48.1941 6.44898 49.3204 5.56641 50.7438 4.939C52.1674 4.30321 53.7792 3.98533 55.5795 3.98533C57.4047 3.98533 59.0041 4.30321 60.3772 4.939C61.7589 5.56641 62.8432 6.44059 63.6303 7.56158C64.4172 8.67417 64.8234 9.95411 64.8485 11.4013H60.3646ZM74.705 30.4245C73.4824 30.4245 72.3812 30.207 71.4015 29.772C70.4303 29.3285 69.66 28.676 69.0906 27.8144C68.5296 26.9528 68.249 25.8904 68.249 24.6271C68.249 23.5397 68.45 22.6404 68.8521 21.9292C69.2539 21.2182 69.8023 20.6495 70.4973 20.2227C71.1923 19.7961 71.9753 19.474 72.8459 19.2565C73.7252 19.0307 74.6336 18.8676 75.5715 18.7671C76.7019 18.6501 77.6187 18.5454 78.3222 18.4534C79.0254 18.353 79.5363 18.2025 79.8544 18.0016C80.181 17.7926 80.3443 17.4704 80.3443 17.0354V16.9602C80.3443 16.015 80.0637 15.2829 79.5027 14.7643C78.9417 14.2456 78.1337 13.9863 77.0788 13.9863C75.9651 13.9863 75.0816 14.229 74.4285 14.714C73.7838 15.1993 73.3484 15.7723 73.1224 16.4331L68.877 15.8308C69.212 14.6597 69.7648 13.6809 70.535 12.8946C71.3053 12.0998 72.2472 11.5059 73.361 11.1127C74.4747 10.7111 75.7055 10.5105 77.0536 10.5105C77.983 10.5105 78.9083 10.6192 79.8293 10.8367C80.7504 11.0542 81.5918 11.4139 82.3538 11.9158C83.1158 12.4094 83.7271 13.0827 84.1876 13.9361C84.6565 14.7894 84.8909 15.856 84.8909 17.1359V30.0354H80.5201V27.3878H80.3694C80.093 27.9232 79.7037 28.4251 79.2013 28.8935C78.7073 29.3537 78.0834 29.7259 77.3299 30.0103C76.5846 30.2863 75.7096 30.4245 74.705 30.4245ZM75.8855 27.0867C76.7982 27.0867 77.5895 26.9067 78.2593 26.547C78.9291 26.1789 79.4441 25.6939 79.8041 25.0914C80.1725 24.4891 80.3568 23.8324 80.3568 23.1214V20.8501C80.2144 20.9673 79.9717 21.0761 79.6283 21.1764C79.2934 21.2769 78.9166 21.3646 78.498 21.4398C78.0793 21.5152 77.6647 21.5821 77.2544 21.6406C76.8442 21.6993 76.4883 21.7494 76.1869 21.7912C75.5086 21.8833 74.9016 22.0338 74.3658 22.2429C73.8298 22.4522 73.4069 22.7449 73.0973 23.1214C72.7874 23.4895 72.6326 23.9663 72.6326 24.5519C72.6326 25.3884 72.9381 26.0199 73.5494 26.4467C74.1607 26.8733 74.9394 27.0867 75.8855 27.0867ZM99.2342 10.7613V14.2749H87.8298V10.7613H99.2342ZM90.6809 30.0354V8.94194C90.6809 7.64523 90.9489 6.56608 91.4847 5.70443C92.029 4.84279 92.7576 4.19866 93.6701 3.77202C94.5828 3.34537 95.5961 3.13204 96.7097 3.13204C97.4968 3.13204 98.1959 3.19479 98.8072 3.32029C99.4185 3.44577 99.8706 3.55868 100.164 3.65908L99.2593 7.17258C99.0668 7.11402 98.8239 7.05546 98.5309 6.9969C98.2378 6.92998 97.9112 6.89652 97.5512 6.89652C96.7055 6.89652 96.1068 7.10147 95.7551 7.51139C95.4118 7.91292 95.2403 8.49023 95.2403 9.24308V30.0354H90.6809ZM110.61 30.412C108.676 30.412 107.006 30.0103 105.599 29.2072C104.201 28.3959 103.125 27.2498 102.371 25.769C101.617 24.28 101.241 22.5274 101.241 20.5113C101.241 18.5287 101.617 16.7886 102.371 15.2912C103.133 13.7855 104.196 12.6143 105.561 11.7778C106.926 10.9329 108.53 10.5105 110.372 10.5105C111.561 10.5105 112.683 10.7028 113.738 11.0876C114.801 11.4641 115.739 12.0497 116.551 12.8444C117.372 13.639 118.016 14.6514 118.485 15.8811C118.954 17.1023 119.189 18.558 119.189 20.2478V21.6406H103.376V18.579H114.83C114.822 17.7089 114.634 16.9351 114.265 16.2574C113.897 15.5715 113.382 15.0319 112.72 14.6389C112.067 14.2456 111.305 14.0489 110.434 14.0489C109.505 14.0489 108.689 14.2749 107.985 14.7266C107.282 15.1701 106.733 15.7557 106.34 16.4834C105.955 17.2029 105.758 17.9934 105.75 18.855V21.5278C105.75 22.6487 105.955 23.6108 106.365 24.4139C106.775 25.2086 107.349 25.8193 108.086 26.2459C108.823 26.6642 109.685 26.8733 110.673 26.8733C111.335 26.8733 111.933 26.7812 112.469 26.5973C113.005 26.4049 113.47 26.1246 113.863 25.7565C114.257 25.3884 114.554 24.9326 114.755 24.3888L119 24.8656C118.732 25.9866 118.222 26.9654 117.468 27.8018C116.723 28.6301 115.768 29.2742 114.604 29.7343C113.441 30.186 112.109 30.412 110.61 30.412ZM123.814 30.0354V4.33668H132.807C134.599 4.33668 136.076 4.6462 137.24 5.26525C138.404 5.87593 139.271 6.69994 139.84 7.73726C140.41 8.76624 140.694 9.90818 140.694 11.163C140.694 12.2672 140.497 13.1791 140.104 13.8984C139.719 14.6178 139.208 15.1868 138.572 15.6049C137.944 16.0232 137.261 16.3328 136.524 16.5336V16.7845C137.311 16.8348 138.103 17.1108 138.898 17.6128C139.694 18.1147 140.359 18.834 140.895 19.771C141.431 20.708 141.699 21.854 141.699 23.2092C141.699 24.4975 141.406 25.6562 140.82 26.685C140.234 27.7141 139.308 28.5297 138.044 29.132C136.78 29.7343 135.134 30.0354 133.108 30.0354H123.814ZM126.929 27.2749H133.108C135.143 27.2749 136.587 26.8817 137.441 26.0953C138.304 25.3006 138.735 24.3385 138.735 23.2092C138.735 22.3391 138.513 21.5362 138.069 20.8C137.625 20.0554 136.993 19.4614 136.173 19.0181C135.352 18.5664 134.381 18.3405 133.259 18.3405H126.929V27.2749ZM126.929 15.63H132.706C133.644 15.63 134.49 15.4461 135.243 15.078C136.005 14.7099 136.608 14.1913 137.052 13.522C137.504 12.8528 137.73 12.0664 137.73 11.163C137.73 10.0336 137.337 9.07582 136.549 8.2894C135.762 7.49466 134.515 7.09729 132.807 7.09729H126.929V15.63ZM146.415 30.0354V10.7613H149.379V30.0354H146.415ZM147.922 7.54902C147.345 7.54902 146.846 7.35244 146.428 6.95927C146.017 6.56608 145.812 6.09344 145.812 5.54132C145.812 4.9892 146.017 4.51654 146.428 4.12337C146.846 3.73018 147.345 3.5336 147.922 3.5336C148.5 3.5336 148.994 3.73018 149.404 4.12337C149.823 4.51654 150.033 4.9892 150.033 5.54132C150.033 6.09344 149.823 6.56608 149.404 6.95927C148.994 7.35244 148.5 7.54902 147.922 7.54902ZM163.198 10.7613V13.271H153.201V10.7613H163.198ZM156.115 6.14364H159.079V24.5142C159.079 25.3507 159.2 25.9781 159.443 26.3964C159.694 26.8063 160.012 27.0824 160.397 27.2247C160.791 27.3586 161.205 27.4255 161.641 27.4255C161.967 27.4255 162.235 27.4086 162.445 27.3752C162.654 27.3334 162.822 27.2999 162.947 27.2749L163.55 29.9351C163.349 30.0103 163.069 30.0857 162.708 30.1609C162.348 30.2445 161.892 30.2863 161.339 30.2863C160.502 30.2863 159.681 30.1065 158.878 29.7469C158.082 29.387 157.421 28.8391 156.893 28.103C156.374 27.3668 156.115 26.4383 156.115 25.3173V6.14364ZM175.538 30.4369C173.68 30.4369 172.076 30.027 170.728 29.2072C169.388 28.379 168.354 27.2247 167.626 25.7439C166.905 24.2549 166.546 22.5233 166.546 20.549C166.546 18.5747 166.905 16.8348 167.626 15.3289C168.354 13.8147 169.367 12.6353 170.665 11.7904C171.971 10.937 173.495 10.5105 175.237 10.5105C176.242 10.5105 177.234 10.6777 178.214 11.0124C179.193 11.3469 180.085 11.8907 180.889 12.6436C181.693 13.3882 182.333 14.3752 182.81 15.6049C183.287 16.8348 183.526 18.3489 183.526 20.1475V21.4023H168.656V18.8424H180.512C180.512 17.7549 180.294 16.7845 179.859 15.9312C179.432 15.078 178.821 14.4045 178.025 13.9109C177.238 13.4174 176.309 13.1707 175.237 13.1707C174.056 13.1707 173.035 13.4633 172.172 14.0489C171.318 14.6263 170.661 15.3791 170.2 16.3077C169.74 17.2362 169.51 18.2317 169.51 19.2941V21.0007C169.51 22.4563 169.761 23.6903 170.263 24.7025C170.774 25.7062 171.482 26.4718 172.386 26.9987C173.29 27.5174 174.341 27.7767 175.538 27.7767C176.317 27.7767 177.02 27.6679 177.648 27.4504C178.285 27.2247 178.833 26.89 179.294 26.4467C179.754 25.995 180.11 25.4343 180.361 24.7651L183.226 25.5682C182.923 26.5388 182.417 27.3919 181.705 28.1281C180.994 28.8558 180.114 29.4247 179.068 29.8346C178.021 30.2363 176.845 30.4369 175.538 30.4369ZM201.7 15.078L199.038 15.8308C198.871 15.3876 198.623 14.9567 198.297 14.5383C197.978 14.1118 197.542 13.7604 196.99 13.4844C196.438 13.2083 195.731 13.0703 194.868 13.0703C193.687 13.0703 192.703 13.342 191.917 13.8858C191.139 14.4213 190.748 15.1031 190.748 15.9312C190.748 16.6673 191.017 17.2488 191.551 17.6754C192.088 18.1022 192.925 18.4577 194.064 18.7421L196.927 19.4447C198.652 19.8631 199.937 20.503 200.784 21.3646C201.629 22.218 202.052 23.3179 202.052 24.6648C202.052 25.769 201.733 26.7561 201.097 27.6261C200.47 28.4962 199.59 29.1821 198.46 29.6841C197.33 30.186 196.015 30.4369 194.516 30.4369C192.549 30.4369 190.92 30.0103 189.63 29.1572C188.341 28.3038 187.525 27.0574 187.181 25.4176L189.995 24.7151C190.262 25.7524 190.769 26.5303 191.514 27.049C192.268 27.5676 193.253 27.827 194.465 27.827C195.848 27.827 196.945 27.5343 197.756 26.9487C198.578 26.3546 198.988 25.6436 198.988 24.8154C198.988 24.1461 198.753 23.5857 198.285 23.134C197.815 22.6738 197.094 22.3309 196.124 22.1049L192.909 21.3521C191.143 20.9337 189.844 20.2855 189.015 19.407C188.195 18.5203 187.784 17.4119 187.784 16.0817C187.784 14.9944 188.089 14.0323 188.7 13.1958C189.321 12.3591 190.162 11.7024 191.225 11.2256C192.298 10.7488 193.512 10.5105 194.868 10.5105C196.778 10.5105 198.275 10.9286 199.364 11.7653C200.462 12.6017 201.24 13.706 201.7 15.078Z" fill="black"/>
<defs>
<linearGradient id="paint0_linear_228_178" x1="120.997" y1="34.5506" x2="121.125" y2="-0.0158521" gradientUnits="userSpaceOnUse">
<stop stop-color="#FB3600"/>
<stop offset="1" stop-color="#FF531F"/>
</linearGradient>
</defs>
</svg>
