<svg width="316" height="219" viewBox="0 0 316 219" fill="none" xmlns="http://www.w3.org/2000/svg">
<g filter="url(#filter0_d_185_243)">
<path d="M117.253 58.9049H101.429C95.1168 58.9049 90 64.0169 90 70.323V86.1325C90 92.4385 95.1168 97.5506 101.429 97.5506H117.253C123.565 97.5506 128.681 92.4385 128.681 86.1325V70.323C128.681 64.0169 123.565 58.9049 117.253 58.9049Z" fill="url(#paint0_linear_185_243)"/>
</g>
<mask id="mask0_185_243" style="mask-type:alpha" maskUnits="userSpaceOnUse" x="89" y="58" width="41" height="40">
<path d="M117.251 59.0149H101.427C95.176 59.0149 90.1084 64.0777 90.1084 70.3231V86.1327C90.1084 92.3781 95.176 97.4409 101.427 97.4409H117.251C123.502 97.4409 128.57 92.3781 128.57 86.1327V70.3231C128.57 64.0777 123.502 59.0149 117.251 59.0149Z" fill="url(#paint1_linear_185_243)" stroke="black"/>
</mask>
<g mask="url(#mask0_185_243)">
<path d="M114.842 87.0826C118.441 82.3689 120.968 75.6646 123.359 70.4964L123.385 70.4637L122.511 69.7977L112.75 82.5365C112.241 83.202 111.508 83.5064 110.842 82.9985C110.219 82.5242 110.326 81.8635 110.728 81.2026C110.75 81.1505 110.794 81.1152 110.828 81.0715L119.442 67.4588L118.568 66.7929L107.838 78.81L107.735 78.9218C107.203 79.4828 106.506 79.6941 105.873 79.2112C105.206 78.7035 105.295 77.9082 105.804 77.2427L115.499 64.4539L114.626 63.788C110.249 67.5292 104.453 71.7256 100.854 76.4393C98.7126 79.2435 98.441 82.903 100.013 85.8444C100.812 87.3332 100.389 87.9089 100.389 87.9089C100.389 87.9089 81.8375 108.585 80.8877 109.829C79.9379 111.073 79.7833 112.181 79.9257 113.239C80.0682 114.297 80.7934 115.316 81.689 115.998L81.7327 116.031C82.6282 116.714 83.7924 117.135 84.8623 117.001C85.9212 116.859 86.7861 116.586 87.8775 115.156C88.9689 113.727 103.884 90.5726 103.884 90.5726C103.884 90.5726 104.192 89.9437 106.012 90.3649C109.188 91.0934 112.692 89.8978 114.842 87.0826Z" fill="white"/>
</g>
<path d="M157.519 71.6576C157.388 70.4319 156.836 69.4774 155.862 68.7943C154.897 68.1114 153.642 67.7698 152.097 67.7698C151.01 67.7698 150.078 67.9335 149.301 68.2609C148.524 68.5885 147.929 69.033 147.517 69.5944C147.105 70.1559 146.894 70.7968 146.885 71.5173C146.885 72.116 147.02 72.6353 147.292 73.0752C147.573 73.515 147.952 73.8891 148.43 74.1981C148.907 74.4974 149.437 74.7501 150.017 74.9558C150.598 75.1618 151.183 75.3348 151.773 75.4751L154.471 76.149C155.557 76.4015 156.601 76.7432 157.604 77.1736C158.615 77.6039 159.519 78.1467 160.315 78.8017C161.12 79.4567 161.757 80.2472 162.226 81.1736C162.694 82.1 162.928 83.1854 162.928 84.4299C162.928 86.1141 162.497 87.5971 161.635 88.8792C160.774 90.1517 159.528 91.1481 157.898 91.8688C156.278 92.5798 154.316 92.9355 152.012 92.9355C149.774 92.9355 147.831 92.5892 146.182 91.8967C144.543 91.2043 143.26 90.1939 142.333 88.8652C141.415 87.5363 140.919 85.9176 140.844 84.0088H145.971C146.046 85.0101 146.355 85.8427 146.899 86.5071C147.442 87.1716 148.149 87.6674 149.02 87.995C149.9 88.3224 150.884 88.4862 151.97 88.4862C153.103 88.4862 154.096 88.3178 154.948 87.9809C155.81 87.6347 156.484 87.1575 156.971 86.5493C157.458 85.9316 157.707 85.2112 157.716 84.3878C157.707 83.6392 157.486 83.0216 157.056 82.535C156.625 82.0392 156.021 81.6275 155.243 81.2999C154.475 80.963 153.576 80.6637 152.546 80.4018L149.273 79.5595C146.903 78.9513 145.03 78.0297 143.653 76.7946C142.286 75.55 141.602 73.8986 141.602 71.84C141.602 70.1464 142.061 68.6634 142.979 67.3908C143.906 66.1183 145.166 65.1311 146.758 64.4293C148.35 63.7182 150.153 63.3626 152.167 63.3626C154.208 63.3626 155.997 63.7182 157.533 64.4293C159.079 65.1311 160.291 66.1089 161.172 67.3627C162.052 68.6072 162.506 70.0388 162.535 71.6576H157.519ZM173.559 92.9355C172.192 92.9355 170.96 92.6922 169.864 92.2056C168.778 91.7096 167.916 90.9797 167.279 90.016C166.652 89.0523 166.338 87.8639 166.338 86.4509C166.338 85.2347 166.563 84.2288 167.013 83.4333C167.462 82.638 168.075 82.0019 168.853 81.5245C169.63 81.0474 170.506 80.687 171.48 80.4437C172.463 80.1912 173.479 80.0088 174.528 79.8963C175.793 79.7655 176.818 79.6484 177.605 79.5454C178.392 79.4332 178.963 79.2648 179.319 79.0402C179.684 78.8063 179.867 78.446 179.867 77.9594V77.8753C179.867 76.8181 179.553 75.9993 178.926 75.4191C178.298 74.839 177.394 74.549 176.214 74.549C174.969 74.549 173.98 74.8204 173.25 75.3629C172.529 75.9057 172.042 76.5467 171.789 77.2858L167.04 76.6121C167.415 75.3021 168.033 74.2073 168.895 73.3279C169.757 72.4388 170.81 71.7746 172.056 71.3348C173.302 70.8855 174.678 70.6611 176.186 70.6611C177.226 70.6611 178.261 70.7828 179.291 71.0261C180.321 71.2693 181.262 71.6716 182.115 72.2331C182.967 72.7851 183.651 73.5382 184.166 74.4927C184.69 75.4472 184.952 76.6402 184.952 78.0719V92.5003H180.064V89.5389H179.895C179.586 90.1376 179.15 90.6991 178.588 91.223C178.036 91.7377 177.338 92.154 176.495 92.4722C175.662 92.7809 174.683 92.9355 173.559 92.9355ZM174.88 89.202C175.901 89.202 176.786 89.0007 177.535 88.5984C178.284 88.1867 178.86 87.6441 179.263 86.9702C179.675 86.2966 179.881 85.5621 179.881 84.7668V82.2263C179.722 82.3574 179.45 82.479 179.066 82.5912C178.691 82.7036 178.27 82.8018 177.802 82.8859C177.333 82.9702 176.87 83.0451 176.411 83.1105C175.952 83.1762 175.554 83.2321 175.217 83.2789C174.458 83.3819 173.779 83.5503 173.18 83.7842C172.58 84.0182 172.107 84.3456 171.761 84.7668C171.414 85.1785 171.241 85.7118 171.241 86.3668C171.241 87.3025 171.583 88.0088 172.267 88.4862C172.95 88.9633 173.821 89.202 174.88 89.202ZM200.996 70.9417V74.8717H188.24V70.9417H200.996ZM191.429 92.5003V68.9067C191.429 67.4563 191.728 66.2492 192.328 65.2855C192.937 64.3217 193.752 63.6012 194.772 63.124C195.793 62.6468 196.926 62.4082 198.172 62.4082C199.052 62.4082 199.834 62.4784 200.518 62.6187C201.202 62.7591 201.708 62.8854 202.035 62.9977L201.024 66.9276C200.808 66.8621 200.537 66.7966 200.209 66.7311C199.881 66.6563 199.516 66.6188 199.113 66.6188C198.167 66.6188 197.498 66.8481 197.104 67.3066C196.72 67.7557 196.528 68.4014 196.528 69.2435V92.5003H191.429ZM213.72 92.9214C211.557 92.9214 209.688 92.4722 208.115 91.5739C206.551 90.6664 205.347 89.3845 204.504 87.7282C203.661 86.0627 203.24 84.1023 203.24 81.8473C203.24 79.6298 203.661 77.6834 204.504 76.0085C205.357 74.3243 206.546 73.0143 208.073 72.0787C209.599 71.1336 211.393 70.6611 213.453 70.6611C214.783 70.6611 216.038 70.8763 217.218 71.3067C218.408 71.7278 219.457 72.3828 220.365 73.2717C221.283 74.1605 222.004 75.2929 222.528 76.6683C223.053 78.0343 223.315 79.6625 223.315 81.5526V83.1105H205.628V79.686H218.44C218.431 78.7128 218.22 77.8472 217.808 77.0892C217.396 76.322 216.82 75.7184 216.08 75.2788C215.35 74.839 214.497 74.619 213.523 74.619C212.484 74.619 211.571 74.8717 210.784 75.377C209.997 75.873 209.384 76.528 208.944 77.342C208.513 78.1467 208.293 79.031 208.283 79.9947V82.9842C208.283 84.238 208.513 85.3142 208.972 86.2125C209.431 87.1013 210.072 87.7844 210.896 88.2616C211.721 88.7295 212.685 88.9633 213.79 88.9633C214.53 88.9633 215.2 88.8604 215.799 88.6546C216.399 88.4394 216.919 88.1259 217.359 87.7142C217.799 87.3025 218.131 86.7926 218.356 86.1844L223.105 86.7177C222.805 87.9715 222.234 89.0663 221.391 90.0019C220.557 90.9283 219.489 91.6488 218.188 92.1635C216.886 92.6687 215.397 92.9214 213.72 92.9214ZM228.489 92.5003V63.7556H238.547C240.552 63.7556 242.205 64.1018 243.507 64.7942C244.808 65.4773 245.778 66.399 246.414 67.5592C247.051 68.7102 247.37 69.9875 247.37 71.391C247.37 72.6261 247.15 73.6461 246.709 74.4506C246.279 75.2553 245.707 75.8917 244.996 76.3594C244.293 76.8273 243.53 77.1736 242.706 77.3982V77.6788C243.586 77.735 244.471 78.0437 245.361 78.6052C246.25 79.1667 246.995 79.9712 247.594 81.0192C248.194 82.0673 248.494 83.3492 248.494 84.8649C248.494 86.306 248.166 87.602 247.51 88.7528C246.855 89.9038 245.82 90.8161 244.405 91.4898C242.991 92.1635 241.151 92.5003 238.885 92.5003H228.489ZM231.973 89.4126H238.885C241.16 89.4126 242.776 88.9728 243.731 88.0932C244.696 87.2043 245.178 86.1282 245.178 84.8649C245.178 83.8918 244.93 82.9937 244.434 82.1703C243.937 81.3374 243.23 80.673 242.312 80.1772C241.394 79.6719 240.308 79.4192 239.053 79.4192H231.973V89.4126ZM231.973 76.3875H238.435C239.484 76.3875 240.43 76.1817 241.273 75.77C242.125 75.3583 242.799 74.7782 243.296 74.0297C243.801 73.2811 244.054 72.4015 244.054 71.391C244.054 70.1278 243.614 69.0564 242.734 68.1768C241.853 67.2879 240.458 66.8434 238.547 66.8434H231.973V76.3875ZM253.769 92.5003V70.9417H257.084V92.5003H253.769ZM255.455 67.3487C254.809 67.3487 254.251 67.1288 253.783 66.689C253.324 66.2492 253.094 65.7206 253.094 65.103C253.094 64.4855 253.324 63.9568 253.783 63.517C254.251 63.0772 254.809 62.8573 255.455 62.8573C256.101 62.8573 256.653 63.0772 257.112 63.517C257.581 63.9568 257.815 64.4855 257.815 65.103C257.815 65.7206 257.581 66.2492 257.112 66.689C256.653 67.1288 256.101 67.3487 255.455 67.3487ZM272.541 70.9417V73.7488H261.358V70.9417H272.541ZM264.618 65.7767H267.933V86.3247C267.933 87.2603 268.069 87.9621 268.341 88.43C268.622 88.8885 268.978 89.1972 269.408 89.3564C269.849 89.5061 270.312 89.581 270.799 89.581C271.164 89.581 271.464 89.5621 271.698 89.5248C271.932 89.478 272.12 89.4405 272.26 89.4126L272.934 92.3881C272.71 92.4722 272.396 92.5565 271.993 92.6406C271.591 92.7341 271.08 92.7809 270.462 92.7809C269.525 92.7809 268.607 92.5798 267.708 92.1775C266.819 91.775 266.079 91.1622 265.489 90.3388C264.908 89.5154 264.618 88.4768 264.618 87.223V65.7767ZM286.344 92.9493C284.265 92.9493 282.471 92.4909 280.963 91.5739C279.465 90.6475 278.308 89.3564 277.493 87.7001C276.688 86.0346 276.285 84.0977 276.285 81.8894C276.285 79.6811 276.688 77.735 277.493 76.0506C278.308 74.357 279.441 73.0378 280.893 72.0928C282.354 71.1383 284.058 70.6611 286.007 70.6611C287.131 70.6611 288.24 70.8482 289.336 71.2226C290.432 71.5967 291.429 72.205 292.328 73.047C293.227 73.8799 293.944 74.9839 294.478 76.3594C295.011 77.735 295.279 79.4286 295.279 81.4404V82.8439H278.645V79.9806H291.907C291.907 78.7642 291.664 77.6788 291.176 76.7243C290.699 75.77 290.015 75.0167 289.125 74.4646C288.245 73.9126 287.205 73.6366 286.007 73.6366C284.686 73.6366 283.543 73.964 282.579 74.619C281.624 75.2648 280.888 76.1069 280.373 77.1455C279.858 78.1841 279.6 79.2975 279.6 80.4859V82.3947C279.6 84.0228 279.882 85.4031 280.443 86.5353C281.015 87.658 281.806 88.5143 282.818 89.1037C283.829 89.6838 285.004 89.9738 286.344 89.9738C287.215 89.9738 288.002 89.8522 288.704 89.6089C289.416 89.3564 290.029 88.982 290.544 88.4862C291.059 87.9809 291.457 87.3538 291.738 86.6053L294.942 87.5036C294.604 88.5892 294.038 89.5435 293.242 90.3669C292.446 91.1809 291.462 91.8172 290.291 92.2757C289.121 92.7249 287.805 92.9493 286.344 92.9493ZM315.606 75.77L312.628 76.6121C312.441 76.1163 312.164 75.6343 311.8 75.1664C311.444 74.6893 310.956 74.2962 310.338 73.9875C309.72 73.6788 308.929 73.5244 307.964 73.5244C306.644 73.5244 305.542 73.8283 304.663 74.4365C303.793 75.0355 303.356 75.7981 303.356 76.7243C303.356 77.5477 303.657 78.1981 304.255 78.6753C304.855 79.1526 305.791 79.5503 307.066 79.8684L310.268 80.6543C312.197 81.1222 313.635 81.838 314.582 82.8018C315.527 83.7563 316 84.9866 316 86.4931C316 87.7282 315.644 88.8323 314.931 89.8054C314.23 90.7786 313.246 91.5458 311.982 92.1073C310.718 92.6687 309.248 92.9493 307.571 92.9493C305.371 92.9493 303.549 92.4722 302.105 91.5179C300.663 90.5634 299.751 89.1693 299.367 87.3352L302.514 86.5493C302.813 87.7096 303.38 88.5797 304.213 89.1599C305.057 89.74 306.158 90.03 307.514 90.03C309.061 90.03 310.288 89.7027 311.195 89.0477C312.114 88.3832 312.573 87.5879 312.573 86.6615C312.573 85.913 312.309 85.2861 311.786 84.7808C311.261 84.2661 310.455 83.8825 309.369 83.6298L305.773 82.7877C303.797 82.3198 302.345 81.5948 301.417 80.6121C300.501 79.6203 300.041 78.3806 300.041 76.8927C300.041 75.6765 300.382 74.6003 301.066 73.6647C301.76 72.7289 302.701 71.9944 303.89 71.461C305.09 70.9277 306.448 70.6611 307.964 70.6611C310.101 70.6611 311.775 71.1288 312.993 72.0647C314.222 73.0003 315.092 74.2354 315.606 75.77Z" fill="black"/>
<defs>
<filter id="filter0_d_185_243" x="0.0999985" y="0.00492096" width="218.482" height="218.446" filterUnits="userSpaceOnUse" color-interpolation-filters="sRGB">
<feFlood flood-opacity="0" result="BackgroundImageFix"/>
<feColorMatrix in="SourceAlpha" type="matrix" values="0 0 0 0 0 0 0 0 0 0 0 0 0 0 0 0 0 0 127 0" result="hardAlpha"/>
<feOffset dy="31"/>
<feGaussianBlur stdDeviation="44.95"/>
<feComposite in2="hardAlpha" operator="out"/>
<feColorMatrix type="matrix" values="0 0 0 0 1 0 0 0 0 0 0 0 0 0 0 0 0 0 0.25 0"/>
<feBlend mode="normal" in2="BackgroundImageFix" result="effect1_dropShadow_185_243"/>
<feBlend mode="normal" in="SourceGraphic" in2="effect1_dropShadow_185_243" result="shape"/>
</filter>
<linearGradient id="paint0_linear_185_243" x1="113.163" y1="97.5506" x2="114.002" y2="58.9049" gradientUnits="userSpaceOnUse">
<stop stop-color="#FB3600"/>
<stop offset="1" stop-color="#FF531F"/>
</linearGradient>
<linearGradient id="paint1_linear_185_243" x1="111.25" y1="58.9051" x2="109.419" y2="97.5509" gradientUnits="userSpaceOnUse">
<stop offset="1" stop-color="#BC2C00"/>
</linearGradient>
</defs>
</svg>
