<svg width="87" height="87" viewBox="0 0 87 87" fill="none" xmlns="http://www.w3.org/2000/svg">
<rect width="87" height="87" rx="20" fill="url(#paint0_linear_121_175)"/>
<mask id="mask0_121_175" style="mask-type:alpha" maskUnits="userSpaceOnUse" x="0" y="0" width="87" height="87">
<rect x="0.5" y="0.5" width="86" height="86" rx="19.5" fill="url(#paint1_linear_121_175)" stroke="black"/>
</mask>
<g mask="url(#mask0_121_175)">
<path d="M55.8746 63.4345C63.9696 52.8229 69.6541 37.7301 75.0324 26.0952L75.0886 26.0215L73.1235 24.5224L51.1692 53.2003C50.0262 54.6987 48.3769 55.3835 46.8785 54.2405C45.4783 53.1724 45.7191 51.6852 46.6211 50.1971C46.6715 50.0802 46.771 50.0006 46.8459 49.9024L66.221 19.2569L64.2559 17.7579L40.1212 44.8114L39.8905 45.0628C38.6938 46.326 37.1266 46.8014 35.7018 45.7145C34.2034 44.5715 34.4034 42.7811 35.5465 41.2827L57.3534 12.4924L55.3882 10.9933C45.5439 19.4156 32.5088 28.8623 24.4138 39.474C19.5981 45.787 18.987 54.0251 22.5231 60.6473C24.3186 63.9987 23.3688 65.2948 23.3688 65.2948C23.3688 65.2948 -18.3567 111.842 -20.4929 114.643C-22.6291 117.443 -22.9769 119.937 -22.6565 122.318C-22.3361 124.7 -20.705 126.993 -18.6907 128.53L-18.5925 128.605C-16.5782 130.141 -13.9598 131.09 -11.5536 130.788C-9.17193 130.468 -7.22663 129.853 -4.7719 126.635C-2.31717 123.417 31.2293 71.2911 31.2293 71.2911C31.2293 71.2911 31.9206 69.8755 36.0159 70.8235C43.1581 72.4637 51.0401 69.7721 55.8746 63.4345Z" fill="white"/>
</g>
<defs>
<linearGradient id="paint0_linear_121_175" x1="52.0968" y1="87" x2="53.9881" y2="2.55114e-06" gradientUnits="userSpaceOnUse">
<stop stop-color="#FB3600"/>
<stop offset="1" stop-color="#FF531F"/>
</linearGradient>
<linearGradient id="paint1_linear_121_175" x1="47.7984" y1="8.19759e-09" x2="43.6719" y2="87" gradientUnits="userSpaceOnUse">
<stop offset="1" stop-color="#FF3B00"/>
<stop offset="1" stop-color="#BC2C00"/>
</linearGradient>
</defs>
</svg>
